<svg width="152" height="113" viewBox="0 0 152 113" fill="none" xmlns="http://www.w3.org/2000/svg">
<path d="M70.6999 41.164C66.4097 41.1627 62.9308 44.6396 62.9296 48.9298L62.9293 50.0055C62.9281 54.2957 66.405 57.7745 70.6951 57.7758L92.71 57.782L92.7125 48.9383C92.7137 44.6481 89.2368 41.1692 84.9467 41.168L70.6999 41.164Z" fill="#164194"/>
<path d="M58.0571 21.2059C53.7669 21.2047 50.2881 24.6816 50.2868 28.9718L50.2828 43.2237C50.2816 47.5139 53.7584 50.9928 58.0486 50.994L92.7131 51.0039L92.7194 28.9839C92.7206 24.6937 89.2437 21.2148 84.9536 21.2136L58.0571 21.2059Z" fill="#164194"/>
<path d="M62.9686 50.9453L62.9668 57.2709C62.9658 60.6976 65.7429 63.4763 69.1696 63.4773L86.5836 63.4822C90.0103 63.4832 92.789 60.6456 92.79 57.2189C92.791 53.7922 90.0139 50.953 86.5872 50.952L62.9686 50.9453Z" fill="#008BD2"/>
<path d="M26.2813 76.779C26.2813 76.8177 26.2813 76.8951 26.2813 76.9337L25.4304 81.6526C25.353 82.078 24.9662 82.4261 24.5408 82.4261H16.7276C15.3352 82.4261 14.7937 82.8903 14.5229 84.3601L14.0201 87.145H23.5351C23.9219 87.145 24.1927 87.4157 24.1927 87.8025C24.1927 87.8412 24.1927 87.8799 24.1927 87.9186L23.3804 92.4827C23.3031 92.9081 22.9163 93.2563 22.4908 93.2563H12.9758L11.0805 104.009C11.0031 104.434 10.5777 104.783 10.1522 104.783H3.84753C3.46074 104.783 3.22866 104.512 3.22866 104.164C3.22866 104.086 3.22866 104.048 3.22866 104.009L6.67109 84.3601C8.02486 76.5083 12.9371 75.6573 18.1201 75.6573C21.8719 75.6573 24.1927 75.9668 25.6238 76.1602C26.0493 76.1988 26.2813 76.4309 26.2813 76.779Z" fill="#164194"/>
<path d="M56.7624 90.2393C56.7624 90.9742 56.6851 91.7091 56.569 92.444L56.1822 94.7647C56.1049 95.2676 55.6794 95.6157 55.2152 95.6157H43.1861C43.1087 96.0798 43.0701 96.4666 43.0701 96.8147C43.0701 98.7487 44.3078 99.0194 46.2417 99.0194C48.2917 99.0194 52.1983 98.8647 53.6681 98.71C53.7068 98.71 53.7454 98.71 53.8228 98.71C54.1709 98.71 54.403 98.8647 54.403 99.2128C54.403 99.2515 54.403 99.2902 54.403 99.3675L53.7841 102.849C53.6681 103.468 53.4747 103.738 52.8172 103.932C50.2257 104.744 47.5955 105.131 44.3465 105.131C40.0531 105.131 35.7984 102.462 35.7984 96.9694C35.7984 96.3506 35.8371 95.693 35.9531 94.9968L36.3786 92.444C37.655 84.7856 42.0644 81.9233 48.5238 81.9233C54.1322 81.9233 56.7624 85.6365 56.7624 90.2393ZM49.8002 89.9685C49.8002 88.6148 49.1813 87.6865 47.4408 87.6865C45.2748 87.6865 44.3465 89.311 43.8823 91.5157H49.6068C49.7228 90.9742 49.8002 90.4327 49.8002 89.9685Z" fill="#164194"/>
<path d="M80.5598 83.8186C80.5598 83.8959 80.5598 84.012 80.5211 84.128L77.04 104.009C76.9627 104.434 76.6533 104.783 76.2278 104.783H71.3929C70.9674 104.783 70.6967 104.512 70.6967 104.125C70.6967 104.086 70.6967 104.048 70.6967 104.009L70.8514 102.81C68.8014 104.396 67.0609 105.131 64.8948 105.131C61.143 105.131 58.1647 102.423 58.1647 97.5883C58.1647 96.8921 58.2807 96.0025 58.3968 95.3449L59.0543 91.4383C60.292 84.0507 64.9722 81.9233 70.8901 81.9233C73.6363 81.9233 76.6146 82.3488 79.3608 82.8903C80.0957 83.045 80.5598 83.161 80.5598 83.8186ZM72.3599 88.228C71.7023 88.1506 70.8127 88.0733 70.0391 88.0733C67.8731 88.0733 66.9061 88.9242 66.3646 92.0185L65.6297 96.1572C65.5524 96.5053 65.5524 96.8534 65.5524 97.1242C65.5524 98.5166 66.2486 98.9034 67.3316 98.9034C68.492 98.9034 69.8844 98.3232 70.658 97.8591L72.3599 88.228Z" fill="#164194"/>
<path d="M102.147 89.6591C102.147 90.394 102.069 91.1676 101.915 92.0185L101.373 95.0355C100.174 101.727 96.6542 105.131 89.5373 105.131C88.9185 105.131 87.6034 105.053 86.8298 104.937L85.7081 111.397C85.6307 111.822 85.5147 112.209 84.7798 112.209H78.978C78.5525 112.209 78.1657 112.016 78.2817 111.397L83.0779 84.128C83.194 83.4705 83.5034 83.1224 84.7024 82.8129C86.8685 82.2714 89.46 81.9233 91.9354 81.9233C97.2344 81.9233 102.147 83.6639 102.147 89.6591ZM94.6816 90.278C94.6816 88.8855 94.1014 88.0733 92.2835 88.0733C90.8911 88.0733 90.5043 88.112 89.7694 88.228L87.9128 98.8647C88.6864 98.9421 89.576 99.0194 90.5043 99.0194C92.6703 99.0194 93.5599 97.2789 93.9467 95.0355L94.4882 92.0185C94.6043 91.361 94.6816 90.7808 94.6816 90.278Z" fill="#164194"/>
<path d="M126.149 83.8186C126.149 83.8959 126.149 84.012 126.11 84.128L122.629 104.009C122.552 104.434 122.243 104.783 121.817 104.783H116.982C116.557 104.783 116.286 104.512 116.286 104.125C116.286 104.086 116.286 104.048 116.286 104.009L116.441 102.81C114.391 104.396 112.65 105.131 110.484 105.131C106.732 105.131 103.754 102.423 103.754 97.5883C103.754 96.8921 103.87 96.0025 103.986 95.3449L104.644 91.4383C105.881 84.0507 110.561 81.9233 116.479 81.9233C119.226 81.9233 122.204 82.3488 124.95 82.8903C125.685 83.045 126.149 83.161 126.149 83.8186ZM117.949 88.228C117.292 88.1506 116.402 88.0733 115.628 88.0733C113.462 88.0733 112.495 88.9242 111.954 92.0185L111.219 96.1572C111.142 96.5053 111.142 96.8534 111.142 97.1242C111.142 98.5166 111.838 98.9034 112.921 98.9034C114.081 98.9034 115.474 98.3232 116.247 97.8591L117.949 88.228Z" fill="#164194"/>
<path d="M151.583 82.8516C151.583 82.929 151.544 83.045 151.505 83.1224L140.869 106.098C138.973 110.236 136.769 112.634 130.696 112.634C129.149 112.634 126.596 112.325 125.591 111.938C125.204 111.783 124.856 111.667 124.856 111.319C124.856 111.281 124.856 111.242 124.856 111.203L125.513 107.451C125.591 107.026 126.055 106.639 126.519 106.639H126.558C127.989 106.717 130.309 106.949 131.779 106.949C132.862 106.949 133.674 106.601 134.139 105.479L134.68 104.202H134.177C132.359 104.202 131.354 103.506 131.122 101.534L128.878 83.1224C128.878 83.0837 128.878 83.045 128.878 83.0063C128.878 82.5809 129.188 82.2714 129.845 82.2714H136.073C136.498 82.2714 136.653 82.6195 136.691 83.045L137.388 96.3506C137.426 96.8147 137.465 97.0081 137.697 97.0081H138.007L143.538 83.0063C143.692 82.5809 144.079 82.2714 144.505 82.2714H150.887C151.235 82.2714 151.583 82.5422 151.583 82.8516Z" fill="#164194"/>
<path d="M36.6744 76.0573C36.7571 75.5404 36.4367 75.313 36.0025 75.313H29.5412C29.107 75.313 28.7141 75.6231 28.6314 76.0573L27.4012 83.0562L36.1679 78.952L36.6744 76.0677V76.0573Z" fill="#008BD2"/>
<path d="M26.8531 86.1889L23.7517 103.805C23.669 104.198 23.9068 104.591 24.3823 104.591H30.8436C31.4329 104.591 31.712 104.239 31.7948 103.805L35.6198 82.0847L26.8531 86.1889Z" fill="#164194"/>
</svg>
